<svg width="18" height="18" viewBox="0 0 18 18" fill="none" xmlns="http://www.w3.org/2000/svg">
<path d="M18 1.38462L16.6154 0L8.99994 7.61546L1.38458 1.49394e-05L0 1.38463L7.61536 9.00006L0.000119515 16.6154L1.3847 18L8.99994 10.3847L16.6153 18L17.9999 16.6154L10.3846 9.00006L18 1.38462Z" fill="white"/>
<path d="M18 1.38462L16.6154 0L8.99994 7.61546L1.38458 1.49394e-05L0 1.38463L7.61536 9.00006L0.000119515 16.6154L1.3847 18L8.99994 10.3847L16.6153 18L17.9999 16.6154L10.3846 9.00006L18 1.38462Z" fill="white"/>
<path d="M18 1.38462L16.6154 0L8.99994 7.61546L1.38458 1.49394e-05L0 1.38463L7.61536 9.00006L0.000119515 16.6154L1.3847 18L8.99994 10.3847L16.6153 18L17.9999 16.6154L10.3846 9.00006L18 1.38462Z" fill="white"/>
<path d="M18 1.38462L16.6154 0L8.99994 7.61546L1.38458 1.49394e-05L0 1.38463L7.61536 9.00006L0.000119515 16.6154L1.3847 18L8.99994 10.3847L16.6153 18L17.9999 16.6154L10.3846 9.00006L18 1.38462Z" fill="white"/>
</svg>
