<?xml version="1.0" encoding="utf-8"?>
<!-- Generator: Adobe Illustrator 25.4.1, SVG Export Plug-In . SVG Version: 6.00 Build 0)  -->
<svg version="1.1" id="Слой_1" xmlns="http://www.w3.org/2000/svg" xmlns:xlink="http://www.w3.org/1999/xlink" x="0px" y="0px"
	 viewBox="0 0 60 60" style="enable-background:new 0 0 60 60;" xml:space="preserve">
<style type="text/css">
	.st0{fill:#FFFFFF;}
</style>
<path class="st0" d="M5.4,12.4l3,3.4L9,14.9l-3-3.4L5.4,12.4z M6.4,40.4l-4.4,0.9l0.4,0.9l4.4-0.9L6.4,40.4z M7.1,42.4
	C6.8,42.1,6.4,42,6.1,42l0.4,1c0.3,0,0.6,0.2,0.9,0.6c0.2,0.3,0.2,0.5,0.2,0.7c0,0.2-0.2,0.4-0.4,0.5C6.8,45,6.5,45,6.3,45
	s-0.5-0.3-0.7-0.6c-0.2-0.4-0.2-0.7-0.1-0.9l-0.6-0.9c-0.5,0.6-0.5,1.3,0.1,2.2c0.3,0.6,0.8,0.9,1.3,1.1c0.5,0.2,1,0.1,1.5-0.2
	c0.4-0.2,0.6-0.6,0.7-1c0.1-0.4-0.1-0.9-0.4-1.4C7.8,42.9,7.5,42.6,7.1,42.4z M2.9,34.6c0.1-0.2,0.2-0.5,0.2-0.9l0-0.6
	c0-0.2,0-0.4,0.1-0.5c0-0.1,0.1-0.1,0.2-0.1c0.2,0,0.3,0.2,0.4,0.6c0,0.3,0,0.6,0,0.8c-0.1,0.2-0.2,0.3-0.4,0.3l0.2,1.1
	c0.8-0.2,1.1-0.9,1-2.2c-0.1-0.6-0.2-1-0.5-1.3c-0.3-0.3-0.6-0.4-0.9-0.4c-0.3,0-0.4,0.2-0.5,0.4c-0.1,0.2-0.2,0.5-0.2,1l0,0.4
	c0,0.3,0,0.5-0.1,0.6c0,0.1-0.1,0.2-0.2,0.2c-0.2,0-0.3-0.2-0.4-0.6c-0.1-0.5,0.1-0.8,0.3-1l-0.1-1.1c-0.4,0.1-0.6,0.3-0.8,0.7
	C1,32.3,1,32.8,1,33.3c0.1,0.5,0.2,0.9,0.4,1.2S2,35,2.3,34.9C2.6,34.9,2.8,34.8,2.9,34.6z M16.4,7.5c0.4,0.1,0.9,0,1.5-0.3
	c0.9-0.5,1.4-1.1,1.4-1.9l-1,0.4c0,0.4-0.3,0.6-0.7,0.8c-0.6,0.3-1,0.2-1.3-0.2l2.8-1.5l-0.1-0.2c-0.1-0.2-0.2-0.4-0.4-0.5
	c-0.1-0.1-0.3-0.2-0.5-0.3c-0.2-0.1-0.4-0.1-0.7-0.1c-0.3,0-0.6,0.1-0.9,0.3c-0.6,0.3-1,0.7-1.2,1.2c-0.2,0.5-0.2,1,0.1,1.5
	C15.6,7.2,16,7.4,16.4,7.5z M16.4,5.2c0.1-0.2,0.3-0.3,0.5-0.4c0.5-0.2,0.8-0.2,1.1,0.1l-1.8,0.9C16.2,5.5,16.2,5.4,16.4,5.2z
	 M57.3,21c-0.4-0.3-0.9-0.4-1.5-0.3c-0.5,0.1-0.8,0.4-1,0.8c-0.2,0.4-0.2,0.9,0,1.5c0.2,0.7,0.5,1.2,0.9,1.5
	c0.4,0.3,0.9,0.4,1.5,0.3c0.5-0.1,0.8-0.4,0.9-0.8s0.2-0.9,0-1.6C58,21.8,57.7,21.4,57.3,21z M57.4,23.4c-0.1,0.2-0.3,0.4-0.5,0.4
	c-0.3,0.1-0.6,0-0.8-0.1c-0.2-0.2-0.4-0.4-0.5-0.7c-0.1-0.3-0.1-0.6,0-0.8c0.1-0.2,0.3-0.4,0.5-0.4c0.3-0.1,0.6,0,0.8,0.1
	c0.2,0.2,0.4,0.4,0.5,0.8C57.5,23,57.5,23.2,57.4,23.4z M54,20.3l4.5-0.7l-0.4-0.9l-4.5,0.7L54,20.3z M53.3,18.3
	c0.3,0.2,0.7,0.3,1.1,0.4l-0.3-1c-0.3,0-0.6-0.2-0.9-0.6C53,16.8,53,16.5,53,16.3c0-0.2,0.2-0.4,0.4-0.5c0.3-0.1,0.5-0.2,0.8-0.1
	c0.3,0.1,0.5,0.3,0.7,0.6c0.2,0.4,0.2,0.7,0.1,0.9l0.6,0.9c0.5-0.6,0.5-1.3,0-2.2c-0.3-0.6-0.7-1-1.2-1.1c-0.5-0.2-1-0.2-1.5,0.1
	c-0.4,0.2-0.7,0.6-0.7,1c-0.1,0.4,0,0.9,0.3,1.4C52.7,17.7,52.9,18.1,53.3,18.3z M2.6,30.7c0.5,0,0.9-0.1,1.2-0.5
	c0.3-0.3,0.5-0.8,0.5-1.4c0.1-1-0.3-1.8-1-2.2l-0.2,1c0.3,0.2,0.4,0.6,0.4,1c0,0.6-0.3,1-0.8,1l0.2-3.1l-0.2,0c-0.2,0-0.4,0-0.6,0.1
	s-0.4,0.1-0.6,0.3c-0.2,0.1-0.3,0.3-0.4,0.6c-0.1,0.3-0.2,0.6-0.2,1C0.9,29,1,29.6,1.3,30C1.6,30.4,2.1,30.6,2.6,30.7z M2.3,27.5
	l-0.1,2c-0.2-0.1-0.3-0.2-0.4-0.4c-0.1-0.2-0.1-0.4-0.1-0.7C1.7,27.9,1.9,27.6,2.3,27.5z M4.4,36.1c-0.4-0.3-0.9-0.4-1.5-0.2
	C2.5,36,2.2,36.3,2,36.7c-0.2,0.4-0.1,0.9,0,1.6c0.2,0.7,0.5,1.1,1,1.4s0.9,0.4,1.5,0.2c0.5-0.1,0.8-0.4,0.9-0.8
	c0.2-0.4,0.2-0.9,0-1.5C5.2,36.9,4.9,36.4,4.4,36.1z M4.7,38.5c-0.1,0.2-0.3,0.4-0.5,0.4C3.8,39,3.6,39,3.3,38.8
	c-0.2-0.2-0.4-0.4-0.5-0.7c-0.1-0.3-0.1-0.6,0-0.8c0.1-0.2,0.3-0.4,0.5-0.4c0.3-0.1,0.6-0.1,0.8,0.1c0.2,0.2,0.4,0.4,0.5,0.7
	C4.8,38,4.8,38.3,4.7,38.5z M9.9,9.3C9.5,9.4,9,9.7,8.6,10.2c-0.5,0.5-0.7,1-0.7,1.6c0,0.5,0.2,1,0.6,1.4c0.4,0.3,0.8,0.5,1.2,0.4
	c0.4-0.1,0.9-0.3,1.3-0.8c0.5-0.5,0.7-1,0.8-1.6c0-0.5-0.2-1-0.6-1.4C10.8,9.4,10.4,9.2,9.9,9.3z M10.4,12.1
	c-0.2,0.2-0.4,0.4-0.7,0.4c-0.2,0-0.5,0-0.7-0.2c-0.2-0.2-0.3-0.5-0.3-0.7c0-0.3,0.1-0.6,0.4-0.8c0.2-0.2,0.4-0.4,0.7-0.4
	c0.2,0,0.5,0,0.6,0.2c0.2,0.2,0.3,0.5,0.3,0.8C10.8,11.6,10.7,11.8,10.4,12.1z M43.9,7.7c0.1,0.4,0.4,0.8,0.9,1.2
	c0.8,0.6,1.6,0.7,2.4,0.4l-0.8-0.7c-0.3,0.1-0.7,0-1.1-0.2c-0.5-0.4-0.7-0.8-0.4-1.2l2.6,1.8l0.1-0.1c0.1-0.2,0.2-0.4,0.3-0.6
	c0.1-0.2,0.1-0.4,0.1-0.6c0-0.2-0.1-0.4-0.3-0.7c-0.2-0.2-0.4-0.5-0.7-0.7c-0.5-0.4-1.1-0.6-1.6-0.5c-0.5,0-1,0.3-1.3,0.7
	C43.8,6.9,43.7,7.3,43.9,7.7z M45.9,6.6c0.2,0,0.4,0.1,0.6,0.3c0.4,0.3,0.6,0.7,0.4,1l-1.6-1.2C45.5,6.6,45.7,6.5,45.9,6.6z M5,18.7
	C5.5,19,5.9,19,6.3,18.8c0.4-0.2,0.8-0.5,1-1c0.2-0.4,0.3-0.8,0.3-1.2c0-0.4-0.1-0.8-0.3-1.1l-0.6,0.8c0.2,0.3,0.1,0.7-0.1,1.1
	c-0.1,0.3-0.3,0.4-0.5,0.5c-0.2,0.1-0.4,0.1-0.7-0.1C5.2,17.6,5,17.4,5,17.1c-0.1-0.3,0-0.6,0.2-0.9c0.2-0.4,0.4-0.5,0.7-0.5l0.5-1
	C5.6,14.6,5,15,4.5,15.9C4.1,16.5,4,17,4.1,17.5C4.3,18.1,4.6,18.5,5,18.7z M42.8,52.8c-0.4-0.1-0.9,0-1.5,0.3
	c-0.9,0.4-1.4,1.1-1.5,1.9l1-0.4c0.1-0.3,0.3-0.6,0.7-0.8c0.6-0.3,1-0.2,1.3,0.3L40,55.4l0.1,0.2c0.1,0.2,0.2,0.4,0.3,0.5
	c0.1,0.1,0.3,0.3,0.5,0.3c0.2,0.1,0.4,0.1,0.7,0.1c0.3,0,0.6-0.1,0.9-0.3c0.6-0.3,1-0.7,1.2-1.2c0.2-0.5,0.2-1,0-1.5
	C43.6,53.1,43.3,52.9,42.8,52.8z M42.8,55.1c-0.1,0.2-0.3,0.3-0.5,0.4c-0.5,0.2-0.8,0.2-1.1-0.1l1.8-0.9C43,54.8,42.9,55,42.8,55.1z
	 M49.8,47.1c-0.4,0.1-0.9,0.3-1.3,0.8c-0.5,0.5-0.8,1-0.8,1.6c-0.1,0.5,0.1,1,0.5,1.4c0.3,0.3,0.7,0.5,1.2,0.4
	c0.4-0.1,0.9-0.3,1.3-0.8c0.5-0.5,0.8-1,0.8-1.5c0-0.5-0.1-1-0.5-1.4C50.7,47.1,50.3,47,49.8,47.1z M50.2,49.9
	c-0.2,0.2-0.4,0.3-0.7,0.4c-0.2,0-0.5-0.1-0.6-0.2c-0.2-0.2-0.3-0.5-0.3-0.8c0-0.3,0.1-0.6,0.4-0.8c0.2-0.2,0.5-0.4,0.7-0.4
	c0.2,0,0.5,0.1,0.6,0.2c0.2,0.2,0.3,0.5,0.3,0.8C50.6,49.3,50.5,49.6,50.2,49.9z M47.1,51.5c-0.2,0-0.5,0.1-0.9,0.3L45.6,52
	c-0.2,0.1-0.3,0.2-0.4,0.2c-0.1,0-0.2,0-0.2-0.1c-0.1-0.2,0-0.4,0.3-0.6c0.3-0.2,0.5-0.3,0.7-0.3c0.2,0,0.3,0,0.5,0.2l0.9-0.7
	c-0.5-0.6-1.3-0.6-2.4,0.2c-0.5,0.3-0.8,0.7-0.9,1c-0.1,0.4-0.1,0.7,0.1,1c0.2,0.2,0.3,0.3,0.6,0.3c0.2,0,0.5-0.1,0.9-0.3l0.3-0.2
	c0.3-0.1,0.5-0.2,0.6-0.2c0.1,0,0.2,0,0.2,0c0.1,0.2,0,0.4-0.3,0.6c-0.4,0.3-0.8,0.4-1,0.2l-0.9,0.6c0.2,0.3,0.6,0.4,1,0.4
	c0.4-0.1,0.8-0.3,1.3-0.6c0.4-0.3,0.7-0.6,0.9-1c0.1-0.3,0.1-0.7-0.1-0.9C47.6,51.6,47.4,51.5,47.1,51.5z M15.2,8.4
	c0.1-0.4,0.1-0.7-0.1-1c-0.2-0.2-0.4-0.3-0.6-0.3s-0.5,0.1-0.9,0.3l-0.3,0.2c-0.3,0.1-0.5,0.2-0.6,0.3c-0.1,0-0.2,0-0.2,0
	c-0.1-0.2,0-0.4,0.3-0.6c0.4-0.3,0.7-0.4,1-0.2l0.9-0.7c-0.3-0.3-0.6-0.4-1-0.3c-0.4,0.1-0.8,0.3-1.3,0.6c-0.4,0.3-0.7,0.7-0.8,1
	c-0.1,0.3-0.1,0.7,0.1,0.9C11.7,8.9,11.9,9,12.2,9c0.2,0,0.5-0.1,0.9-0.3l0.6-0.3c0.2-0.1,0.3-0.2,0.4-0.2c0.1,0,0.2,0,0.2,0.1
	c0.1,0.2,0,0.4-0.3,0.6c-0.3,0.2-0.5,0.3-0.7,0.4c-0.2,0-0.4,0-0.5-0.2l-0.9,0.7c0.5,0.6,1.3,0.5,2.4-0.3C14.8,9.2,15,8.8,15.2,8.4z
	 M50.5,45.6l2.9,3.5l0.6-0.8l-2.9-3.5L50.5,45.6z M57.4,30.1c-0.5,0-0.9,0.1-1.2,0.4c-0.3,0.3-0.5,0.8-0.5,1.4
	c-0.1,1,0.2,1.8,0.9,2.2l0.2-1c-0.3-0.2-0.4-0.6-0.3-1c0.1-0.6,0.3-1,0.9-1L57,34.3l0.2,0c0.2,0,0.4,0,0.6,0c0.2,0,0.4-0.1,0.6-0.3
	c0.2-0.1,0.3-0.3,0.5-0.6c0.1-0.3,0.2-0.6,0.2-0.9c0.1-0.7-0.1-1.2-0.4-1.7C58.4,30.4,57.9,30.2,57.4,30.1z M57.6,33.3l0.2-2
	c0.2,0.1,0.3,0.2,0.4,0.4c0.1,0.2,0.1,0.4,0.1,0.7C58.3,32.9,58,33.2,57.6,33.3z M56.1,29c0.2,0.3,0.5,0.5,0.9,0.4
	c0.3,0,0.4-0.1,0.6-0.4c0.1-0.2,0.2-0.5,0.2-1l0-0.4c0-0.3,0.1-0.5,0.1-0.6c0-0.1,0.1-0.2,0.2-0.2c0.2,0,0.3,0.2,0.4,0.6
	c0,0.5-0.1,0.8-0.4,0.9l0.1,1.1c0.4-0.1,0.6-0.3,0.8-0.6c0.2-0.4,0.2-0.8,0.2-1.4c0-0.5-0.2-1-0.4-1.2c-0.2-0.3-0.5-0.4-0.9-0.4
	c-0.2,0-0.4,0.1-0.5,0.3c-0.1,0.2-0.2,0.5-0.2,0.9L57,27.7c0,0.2,0,0.4-0.1,0.5c0,0.1-0.1,0.1-0.2,0.1c-0.2,0-0.3-0.2-0.4-0.6
	c0-0.3,0-0.6,0.1-0.8c0.1-0.2,0.2-0.3,0.4-0.3l-0.1-1.1c-0.8,0.1-1.2,0.9-1,2.2C55.7,28.2,55.9,28.7,56.1,29z M54.6,42
	c-0.4-0.2-0.8-0.3-1.2-0.1c-0.4,0.2-0.8,0.5-1.1,1c-0.2,0.4-0.4,0.8-0.4,1.2c0,0.4,0,0.8,0.2,1.1l0.7-0.8c-0.1-0.3-0.1-0.7,0.1-1.1
	c0.1-0.3,0.3-0.4,0.5-0.5c0.2-0.1,0.4,0,0.7,0.1c0.3,0.2,0.4,0.4,0.5,0.6c0.1,0.3,0,0.6-0.2,0.9c-0.2,0.4-0.5,0.5-0.8,0.5l-0.5,1
	c0.8,0.1,1.4-0.2,1.9-1.1c0.3-0.6,0.5-1.1,0.4-1.6C55.3,42.6,55.1,42.2,54.6,42z M38,1.9c-0.7-0.2-1.2-0.2-1.7,0
	c-0.5,0.2-0.8,0.6-1,1.1c-0.1,0.5-0.1,0.9,0.2,1.2c0.3,0.4,0.7,0.6,1.3,0.8c0.7,0.2,1.3,0.2,1.8,0c0.5-0.2,0.8-0.6,1-1.1
	c0.1-0.5,0.1-0.9-0.2-1.2C39.1,2.3,38.6,2.1,38,1.9z M38.5,3.7C38.4,4,38.2,4.2,38,4.4c-0.3,0.1-0.6,0.1-0.9,0
	c-0.3-0.1-0.5-0.2-0.7-0.4c-0.1-0.2-0.2-0.4-0.1-0.7c0.1-0.3,0.3-0.5,0.5-0.6c0.3-0.1,0.6-0.1,0.9,0C38,2.7,38.3,2.8,38.4,3
	C38.5,3.2,38.6,3.5,38.5,3.7z M41.1,6.7c0.5,0.2,1,0.3,1.3,0.3c0.4-0.1,0.7-0.2,0.8-0.6c0.1-0.2,0.1-0.5,0-0.7
	c-0.1-0.2-0.4-0.4-0.7-0.7l-0.3-0.2c-0.2-0.2-0.4-0.3-0.5-0.4c-0.1-0.1-0.1-0.2-0.1-0.2c0.1-0.2,0.3-0.2,0.7,0
	c0.5,0.2,0.7,0.5,0.6,0.8l1,0.5c0.1-0.4,0.1-0.7-0.2-1c-0.2-0.3-0.6-0.6-1.1-0.9c-0.5-0.2-0.9-0.3-1.3-0.3c-0.4,0-0.6,0.2-0.8,0.5
	c-0.1,0.2-0.1,0.4,0,0.6C40.8,4.7,41,5,41.3,5.2l0.5,0.4c0.2,0.1,0.3,0.2,0.4,0.3c0.1,0.1,0.1,0.2,0,0.2c-0.1,0.2-0.3,0.2-0.7,0
	C41.2,6,41,5.8,40.9,5.7c-0.1-0.2-0.1-0.3-0.1-0.5l-1-0.5C39.5,5.5,39.9,6.1,41.1,6.7z M19.6,53.5c-0.5-0.2-1-0.3-1.4-0.2
	c-0.4,0.1-0.7,0.3-0.8,0.6c-0.1,0.2-0.1,0.5,0,0.7c0.1,0.2,0.4,0.4,0.7,0.6l0.3,0.2c0.3,0.2,0.4,0.3,0.5,0.4
	c0.1,0.1,0.1,0.2,0.1,0.2c-0.1,0.2-0.3,0.2-0.7,0c-0.5-0.2-0.7-0.5-0.6-0.8l-1-0.4c-0.1,0.4-0.1,0.7,0.2,1c0.3,0.3,0.6,0.6,1.2,0.8
	c0.5,0.2,0.9,0.3,1.3,0.2c0.4-0.1,0.6-0.2,0.8-0.6c0.1-0.2,0.1-0.4,0-0.6c-0.1-0.2-0.3-0.4-0.7-0.6L19,54.7
	c-0.2-0.1-0.3-0.2-0.4-0.3c-0.1-0.1-0.1-0.1,0-0.2c0.1-0.2,0.3-0.2,0.7,0c0.3,0.1,0.5,0.3,0.6,0.4c0.1,0.1,0.2,0.3,0.1,0.5l1,0.4
	C21.3,54.7,20.8,54.1,19.6,53.5z M25.5,59.9l1,0.1l1.5-4.3l-1-0.1L25.5,59.9z M25.4,55.7c-0.3-0.4-0.7-0.6-1.3-0.8
	c-0.7-0.2-1.3-0.1-1.8,0.1c-0.5,0.2-0.8,0.6-0.9,1.2c-0.1,0.5,0,0.9,0.3,1.2c0.3,0.3,0.7,0.6,1.4,0.8c0.7,0.2,1.2,0.1,1.7-0.1
	c0.5-0.2,0.8-0.6,0.9-1.2C25.7,56.5,25.6,56.1,25.4,55.7z M24.6,56.8c-0.1,0.3-0.2,0.5-0.5,0.6c-0.3,0.1-0.6,0.2-0.9,0.1
	c-0.3-0.1-0.5-0.2-0.7-0.4c-0.1-0.2-0.2-0.4-0.1-0.7c0.1-0.3,0.2-0.5,0.5-0.7c0.3-0.1,0.6-0.2,0.9-0.1c0.3,0.1,0.5,0.2,0.7,0.4
	C24.6,56.3,24.6,56.5,24.6,56.8z M16.9,52.6c-0.1-0.4-0.5-0.8-1-1.2c-0.9-0.6-1.7-0.7-2.4-0.3l0.8,0.7c0.3-0.1,0.7-0.1,1.1,0.2
	c0.5,0.4,0.7,0.8,0.4,1.2l-2.6-1.8l-0.1,0.2c-0.1,0.2-0.2,0.4-0.3,0.6c-0.1,0.2-0.1,0.4,0,0.6c0,0.2,0.1,0.4,0.3,0.7
	c0.2,0.2,0.4,0.5,0.7,0.7c0.6,0.4,1.1,0.5,1.6,0.5c0.5-0.1,0.9-0.3,1.3-0.8C17,53.5,17,53,16.9,52.6z M14.9,53.8
	c-0.2,0-0.4-0.1-0.6-0.2c-0.4-0.3-0.6-0.6-0.4-1l1.7,1.1C15.3,53.8,15.1,53.8,14.9,53.8z M31.7,56.1c-0.4-0.3-0.8-0.4-1.4-0.4
	c-0.4,0-0.8,0.1-1.2,0.3c-0.4,0.2-0.6,0.4-0.8,0.8l1,0.2c0.2-0.3,0.5-0.4,1-0.4c0.3,0,0.5,0.1,0.7,0.2c0.2,0.1,0.3,0.3,0.3,0.6
	c0,0.3-0.1,0.6-0.3,0.7c-0.2,0.2-0.5,0.3-0.8,0.3c-0.4,0-0.7-0.1-0.8-0.4L28.1,58c0.3,0.7,0.9,1.1,2,1.1c0.7,0,1.2-0.2,1.6-0.5
	c0.4-0.4,0.6-0.8,0.6-1.4C32.2,56.7,32,56.3,31.7,56.1z M34.5,0l-1.7,4.2l1,0.2l1.7-4.2L34.5,0z M30.7,3.4c-0.3,0-0.5-0.1-0.7-0.2
	c-0.2-0.2-0.2-0.4-0.2-0.6c0-0.3,0.1-0.6,0.3-0.7s0.5-0.3,0.9-0.3c0.4,0,0.7,0.2,0.8,0.4l1.1,0C32.6,1.2,32,0.8,31,0.8
	c-0.7,0-1.2,0.1-1.6,0.5c-0.4,0.3-0.6,0.8-0.7,1.3c0,0.5,0.2,0.9,0.5,1.1C29.5,4,30,4.2,30.6,4.2c0.4,0,0.9-0.1,1.2-0.2
	c0.4-0.2,0.7-0.4,0.9-0.7l-1-0.2C31.5,3.3,31.1,3.4,30.7,3.4z M10.2,48.3c-0.4,0-0.6,0.3-0.6,0.6c0,0.4,0.3,0.6,0.6,0.6
	c0.4,0,0.6-0.3,0.6-0.6C10.7,48.6,10.5,48.3,10.2,48.3z M36.1,56.1c-0.4,0-0.6,0.3-0.6,0.6c0,0.4,0.3,0.6,0.6,0.6
	c0.4,0,0.6-0.3,0.6-0.6C36.7,56.4,36.4,56.1,36.1,56.1z M56.2,37.4c-0.4,0-0.6,0.3-0.6,0.6c0,0.4,0.3,0.6,0.6,0.6
	c0.4,0,0.6-0.3,0.6-0.6C56.8,37.7,56.5,37.4,56.2,37.4z M50.5,12.2c0.4,0,0.6-0.3,0.6-0.6c0-0.3-0.3-0.6-0.6-0.6
	c-0.4,0-0.6,0.3-0.6,0.6C50,12.1,50.3,12.2,50.5,12.2z M23.6,3.8c0.4,0,0.6-0.3,0.6-0.6c0-0.3-0.3-0.6-0.6-0.6
	c-0.4,0-0.6,0.3-0.6,0.6C23,3.6,23.3,3.8,23.6,3.8z M3.6,23c0.4,0,0.6-0.3,0.6-0.6s-0.3-0.6-0.6-0.6c-0.4,0-0.6,0.3-0.6,0.6
	C3.1,22.8,3.3,23,3.6,23z"/>
</svg>
